<?xml version="1.0" encoding="utf-8"?>
<!-- Generator: Adobe Illustrator 19.0.1, SVG Export Plug-In . SVG Version: 6.00 Build 0)  -->
<svg version="1.1" id="Слой_1" xmlns="http://www.w3.org/2000/svg" xmlns:xlink="http://www.w3.org/1999/xlink" x="0px" y="0px"
	 viewBox="0 0 380 380" style="enable-background:new 0 0 380 380;" xml:space="preserve">
<style type="text/css">
	.st0{fill-rule:evenodd;clip-rule:evenodd;fill:#DCB57E;}
</style>
<path class="st0" d="M55.4,293.8c-2.2,5.2-9.9,24.9-13.3,34.4c-6.6,18.3-13.5,42.3-35.1,41.4v5.9l25.9,1.9c36.2,0,58-21.1,70.4-50.9
	c2.3-5.5,10.8-30.6,14.1-39.7c6.3-17.5,13-40.5,33.6-39.6l0-5.7l-29.7-0.3C86.6,241.1,66.3,268.5,55.4,293.8z"/>
<path class="st0" d="M341.3,362.2L202.2,8v0L202,7.5l-0.1,0.3l-12-5.2l-57.7,134l12.3,5.3L164,96.5c8.3,21.1,87.2,221,104.8,265.6
	h-49v13.4H373v-13.4H341.3z"/>
</svg>
