<?xml version="1.0" encoding="utf-8"?>
<!-- Generator: Adobe Illustrator 19.0.1, SVG Export Plug-In . SVG Version: 6.00 Build 0)  -->
<svg version="1.1" id="Слой_1" xmlns="http://www.w3.org/2000/svg" xmlns:xlink="http://www.w3.org/1999/xlink" x="0px" y="0px"
	 viewBox="0 0 200 200" style="enable-background:new 0 0 200 200;" xml:space="preserve">
<style type="text/css">
	.st0{fill-rule:evenodd;clip-rule:evenodd;fill:#DCB57E;}
</style>
<g>
	<path class="st0" d="M99,165.6c6,6.8,6,15.5-0.1,22.4C92.5,181.4,92.6,171.8,99,165.6z"/>
	<g>
		<g>
			<path class="st0" d="M108.6,79.5c1.4,1.2,2.5,2.6,3.3,4c0.4,0.8,1,2.1,1.6,3.8c0.1,0.3,0,1.2,0,1.2l0.8,0V76.7h-0.7
				c-0.2,0.4-0.4,0.7-0.5,0.9c-0.3,0.4-0.7,0.6-1.2,0.6c-0.3,0-0.8-0.1-1.2-0.2l-2.4-0.7c-2.4-0.8-4.8-1.2-7-1.2v0.9
				c1.4,0,2.7,0.2,3.8,0.6C106.4,77.9,107.5,78.6,108.6,79.5z"/>
			<path class="st0" d="M113.5,114.4c-0.7,1.7-1.2,2.9-1.6,3.8c-0.8,1.5-1.8,2.8-3.3,4c-1.1,0.9-2.2,1.6-3.4,2
				c-1.1,0.4-2.4,0.6-3.8,0.6v0.9c2.2,0,4.5-0.4,7-1.2l2.4-0.7c0.5-0.2,0.9-0.2,1.2-0.2c0.5,0,0.9,0.2,1.2,0.6
				c0.1,0.2,0.3,0.5,0.5,0.9l0.7,0v-11.7h-0.8C113.6,113.2,113.6,114.1,113.5,114.4z"/>
			<path class="st0" d="M76.1,100.7c0,13.1,9,23.9,20.5,25v-0.9c-6.2-1.3-9.9-6.6-10.5-19.9c-0.8-2.3-2.3-3.9-4.1-4.2v-0.5
				c1.8-0.3,3.3-2,4.1-4.4c0.7-12.4,4.4-17.4,10.5-18.7v-0.8C85.1,77.5,76.1,87.9,76.1,100.7z"/>
		</g>
		<path class="st0" d="M39.3,97.3c-6.5-2.2-13.1-4.4-19.7-6.6c4.4-2.2,9.2-5.5,9.2-12.7C32,91.5,40,98.5,53.4,100
			c-13.4,1.4-21.4,8.3-23.6,20.7c-3.2-4.1-6.6-8.4-10.1-12.9c7.3,0.3,14.5-1.1,19.5-7.7C39.3,99.2,39.3,98.3,39.3,97.3z"/>
		<path class="st0" d="M168,120.4c-4.1-13.4-9-17.8-22.6-19.8c4.8-2.3,10.7-3.8,14.7-7.4c4-3.5,6.1-9.2,8.4-13
			c2.6,3.4,6,7.6,9.1,11.6c-12.7,1.5-13.9,2-19.4,8.4c5.2,6.3,12.3,7.9,19.6,7.6C174.6,112.1,171.3,116.2,168,120.4z"/>
		<path class="st0" d="M160.6,150.2c-4.9-4.5-10.7-9.7-19.7-8.1c-0.9,8.4,3.1,14.5,8.3,19.3c-5.1,0.6-10.5,1.2-14.9,1.7
			c1-4.3,3.6-10.2,3.1-15.8c-0.4-5.5-4-10.8-5.7-15c8.8,7.8,19.7,9.4,30.5,2C161.6,139.5,161.1,145,160.6,150.2z"/>
		<path class="st0" d="M140.7,57.9c9.1,1.4,15.1-3.2,21-8.9c-1.7,6-3.1,11.7,2.3,17c-12.6-7.5-23.6-6.4-34.1,3
			c9.1-10.5,11-21.5,3-32.3c5.4,0.6,11,1.2,16.3,1.8C144.3,43,140.1,49,140.7,57.9z"/>
		<path class="st0" d="M107,178.6c0.1-7-1.6-14.1-8-19.4c-6.8,5.2-8.1,12.4-8.4,22.2c-3.3-7.1-6.8-11.4-13.9-11.4
			c14.3-3.4,21.2-12,22-26c1,13.8,7.8,22.6,20.7,25.1C115.4,172.1,111.1,175.4,107,178.6z"/>
		<path class="st0" d="M67.7,68.7C55,59.4,47.6,58.8,35.1,66c0.8-5.2,1.6-10.5,2.4-15.5c9.7,7.3,11.2,7.9,19.4,7.2
			c1.1-8.5-3.6-14.5-8.4-19.4c5-0.4,10.3-0.9,15.7-1.3C57.2,47.8,58.5,58.7,67.7,68.7z"/>
		<path class="st0" d="M37.6,149.9c-0.8-5.5-1.6-10.6-2.3-15.8c10.9,7.1,22,6.5,32.5-3.2c-9,10.3-10.6,21.1-3.1,33.3
			c-5.3-2.7-10.5-5-16-0.4c3.7-7.4,6.9-13.8,10.7-21.3C48.9,140.5,42.8,144.7,37.6,149.9z"/>
		<path class="st0" d="M119.6,31c-13,2.3-19.8,11.1-20.8,25c-1-13.9-7.6-22.7-20.9-25c4.1-3,8.4-6.1,12.7-9.2
			c0.6,6.2,1.3,13.7,8.3,18.9c6.6-5.1,8.2-12.2,8-19.3C111.1,24.6,115.5,27.9,119.6,31z"/>
		<path class="st0" d="M147.3,65c7.2,0.3,14.1,1.9,16.7,7.8c2.9,6.5-1.7,12.3-5.9,18.3C154.4,82,151,73.8,147.3,65z"/>
		<path class="st0" d="M50.5,135c-7.6-0.5-14.3-2-16.9-7.9c-2.8-6.3,1.5-12.1,6.1-18C43.3,117.9,46.7,126,50.5,135z"/>
		<path class="st0" d="M134,148.2c-0.6,7.3-1.8,14.2-8.1,16.8c-6.2,2.6-12.1-1.2-17.7-6.1C116.9,155.3,125,152,134,148.2z"/>
		<path class="st0" d="M50.2,65.5c-3.4,8.2-6.7,16.2-10,24.3c-4.8-3.5-8.5-12.2-7.2-16.4C34.3,69.2,42.5,65.3,50.2,65.5z"/>
		<path class="st0" d="M147.2,135.1c3.7-9,7.1-17,10.4-25c4.6,3.4,8.8,12.2,6.9,16.3C161.4,133,154.9,134.2,147.2,135.1z"/>
		<path class="st0" d="M89.5,159.4c-5.7,4.1-11.5,8.4-17.8,5.6c-6.3-2.7-7.4-9.7-8-16.3c4.8,1.6,9.3,2.9,13.7,4.6
			C81.3,155,85.1,157.2,89.5,159.4z"/>
		<path class="st0" d="M89,41.3c-8.3,3.4-16.5,6.8-25.3,10.4c0.4-7,2-13.2,7.8-16.8C75.6,32.3,84.2,35.9,89,41.3z"/>
		<path class="st0" d="M134,51.6c-9-3.7-17.1-7-25.2-10.3c4.2-5.2,13-9,17.1-6.7C132,38.2,133.5,44.4,134,51.6z"/>
		<path class="st0" d="M187.1,99.9c-7.1,6.1-15.6,6.1-22.3,0.3C170.4,93.7,179.3,93.5,187.1,99.9z"/>
		<path class="st0" d="M10.5,99.9c7.6-6,16.1-5.9,22.4,0C27.2,106.1,17.7,106.2,10.5,99.9z"/>
		<path class="st0" d="M36.6,37.7c9.6,1,15.3,6.8,15.7,15.6C43.8,53.8,37,47.2,36.6,37.7z"/>
		<path class="st0" d="M36.6,162.3c0.3-9,6.3-15.1,15.4-16.2C52.8,154.6,46.5,161.4,36.6,162.3z"/>
		<path class="st0" d="M160.7,162.2c-8.9-0.7-14.7-6.5-15.5-15.5C153.9,145.8,161.5,153.3,160.7,162.2z"/>
		<path class="st0" d="M98.8,12c6.2,6.4,6.2,15.7,0.1,22.3C92.6,27.7,92.6,18.8,98.8,12z"/>
		<path class="st0" d="M145.5,53.9c0-9.1,5.4-14.7,15-16.3C161.9,45.4,155.6,52.5,145.5,53.9z"/>
	</g>
</g>
</svg>
