<?xml version="1.0" encoding="utf-8"?>
<!-- Generator: Adobe Illustrator 19.0.1, SVG Export Plug-In . SVG Version: 6.00 Build 0)  -->
<svg version="1.1" id="Слой_1" xmlns="http://www.w3.org/2000/svg" xmlns:xlink="http://www.w3.org/1999/xlink" x="0px" y="0px"
	 viewBox="0 0 50 50" style="enable-background:new 0 0 50 50;" xml:space="preserve">
<style type="text/css">
	.st0{fill:#FFFFFF;}
</style>
<g id="Fqv2rC_1_">
	<g>
		<path class="st0" d="M21.9,41.5c0-3.9,0-7.8,0-11.7c0-0.7,0-1.4,0-2.2c-1.5,0-2.9,0-4.4,0c0-2.1,0-4.1,0-6.2c1.5,0,2.9,0,4.4,0
			c0.1-1.3,0.1-2.4,0.2-3.6c0.4-3.3,2.9-6.2,6-6.6c1.9-0.2,3.8,0,5.8,0c0,2,0,4,0,6.1c-1.4,0-2.8,0-4.2,0c-1.4,0-1.8,0.4-1.8,1.8
			c0,0.7,0,1.4,0,2.2c2.1,0,4.1,0,6.1,0c0,2.1,0,4.1,0,6.2c-2,0-4,0-6,0c0,0.3-0.1,0.4-0.1,0.6c0,4.3,0,8.6,0,12.9
			c0,0.2,0,0.3,0.1,0.5C25.8,41.5,23.9,41.5,21.9,41.5z"/>
	</g>
</g>
</svg>
