<?xml version="1.0" encoding="utf-8"?>
<!-- Generator: Adobe Illustrator 19.0.1, SVG Export Plug-In . SVG Version: 6.00 Build 0)  -->
<svg version="1.1" id="Слой_1" xmlns="http://www.w3.org/2000/svg" xmlns:xlink="http://www.w3.org/1999/xlink" x="0px" y="0px"
	 viewBox="0 0 220 100" style="enable-background:new 0 0 220 100;" xml:space="preserve">
<style type="text/css">
	.st0{fill-rule:evenodd;clip-rule:evenodd;fill:#FFFFFF;}
	.st1{fill:#FFFFFF;}
	.st2{font-family:'Geometria';}
	.st3{font-size:13px;}
	.st4{letter-spacing:7;}
	.st5{font-size:15px;}
	.st6{letter-spacing:8;}
</style>
<g>
	<path class="st0" d="M26.4,36.1c1,0.9,1.8,1.8,2.3,2.9c0.3,0.6,0.7,1.2,1.2,2.4c0.1,0.2,0,0.6,0,0.6H30v-8h0
		c-0.1,0-0.3,0.6-0.3,0.7c-0.2,0.3-0.5,0.4-0.8,0.4c-0.2,0-0.5,0-0.9-0.2l-1.8-0.5c-1.7-0.5-4.1-0.8-5.1-0.8v0.6
		c1,0,2.1,0.1,2.9,0.4C24.7,35,25.6,35.5,26.4,36.1z"/>
	<path class="st0" d="M15.4,66.1c-1-0.9-1.8-1.9-2.4-3c-0.3-0.6-0.7-1.3-1.2-2.5c-0.1-0.2,0-0.6,0-0.6H11v8h0.7
		c0.1,0,0.3-0.4,0.4-0.6c0.2-0.3,0.5-0.4,0.9-0.4c0.3,0,0.6,0.1,0.9,0.2l1.4,0.5c1.8,0.6,3.8,0.9,4.8,0.9V68c-1,0-1.6-0.2-2.5-0.5
		C16.7,67.3,16.2,66.8,15.4,66.1z"/>
	<path class="st0" d="M24.5,48.2c0,0-9.7-2.9-9.7-8.7c0-3.9,2.5-4.8,2.5-4.8l-0.1-0.6c0,0-5.9,2.9-5.9,9.8s6.9,9.3,9.3,10.4
		c2.3,1.1,8.4,3.1,8.4,7.7c0,4.6-2.9,5.4-2.9,5.4v0.5c0,0,6.7-2.6,6.7-10.3C32.7,51.4,25.9,48.9,24.5,48.2z"/>
	<path class="st0" d="M210.8,66l-13.1-33.2l0,0.1l0,0l-0.3,0.5l0.2-0.5l-1.1-0.5L191.1,45l1.2,0.5l1.8-4.3c0-0.1-0.1-0.2-0.1-0.2
		l0-0.2c1.5,3.9,8.3,21.2,9.9,25.2h-5v2h14v-2H210.8z"/>
	<path class="st0" d="M196.5,53.1L196.5,53.1C196.5,53.1,196.6,53.1,196.5,53.1C196.5,53.1,196.5,53.1,196.5,53.1z"/>
	<path class="st0" d="M193.1,52.4c-3.9,0-5.9,3.1-7.1,5.9c-0.3,0.6-1,2.8-1.4,3.9c-0.7,2-1.8,4.7-4.1,4.7c0,0-0.4,0-0.4,0v0.7
		l3.2,0.2c4.1,0,6.7-2.4,8.1-5.7c0.3-0.6,1-3.4,1.4-4.5c0.7-1.9,1.3-4.4,3.3-4.5v-0.6L193.1,52.4z"/>
	<path class="st0" d="M56,66.7V68h11V58h-0.4C65.5,63,61,66.2,56,66.7z"/>
	<path class="st0" d="M103.5,58.3c0-0.1,0.1-0.2,0.1-0.3h-0.1V58.3z"/>
	<path class="st0" d="M93,66.7V68h10v-9.7C102,63.1,98,66.2,93,66.7z"/>
	<path class="st0" d="M65.7,43H66v-9H55v0.4C60,34.9,64.6,38,65.7,43z"/>
	<path class="st0" d="M41,35h4v31h-3v2h9V34H41V35z M45.4,67.5C45.4,67.5,45.3,67.5,45.4,67.5C45.3,67.5,45.4,67.5,45.4,67.5
		L45.4,67.5z"/>
	<path class="st0" d="M93,33.6l-14,0V35h6.7c-1.9,1-2.6,2.8-2.7,5h-1v14.6V62v4h-3v2h3v-0.4c1,0,0.6,0.4,0.7,0.4H83v-0.4
		c2-0.3,5.4-2.6,5.9-5.6H89V47v-7v-5h4V33.6z"/>
	<path class="st0" d="M58,56V44h-0.6c-0.1,3-2.4,5.6-4.4,5.9v0.3c2,0.3,4.4,2.7,4.4,5.7H58z"/>
	<path class="st0" d="M125,66.7V68h10V58h0.3C134.2,63,130,66.2,125,66.7z"/>
	<path class="st0" d="M134.4,43H134v-9h-10v0.4C129,34.9,133.3,38,134.4,43z"/>
	<path class="st0" d="M109,35h5v3.5c1-1,1.1-1.9,1.9-2.6c-0.8,0.7-0.9,1.6-1.9,2.6v2.2v3.3V61v5h-4v2h4.5h5.5v-7c0,2-0.9,3.8-2.4,5
		c1.4-1.2,2.4-3,2.4-5v-6.8V44.1V35v-0.8V34h-11V35z M114.1,67.5C114.1,67.5,114,67.5,114.1,67.5C114,67.5,114.1,67.5,114.1,67.5
		L114.1,67.5z"/>
	<path class="st0" d="M114.5,38.5c-0.2,0.5-0.3,0.9-0.4,1.5C114.2,39.4,114.3,38.9,114.5,38.5z"/>
	<path class="st0" d="M126,56V44h0.1c-0.1,3-2.1,5.6-4.1,5.9v0.3c2,0.3,4.1,2.7,4.1,5.7H126z"/>
	<path class="st0" d="M170,64.8c-1-5.5-2.6-11.7-4.2-13.8l-5.7-8h0l-7.6-9.6c0,0-0.5,0.1-0.5,0.1V33h-8v2h7.3
		c-1.7,2-1.8,4.5-0.2,6.6c0.1,0.1-0.1,0.2,0,0.3l9.9,13.4v0.2l9.6,12.4h1.4V57h-2V64.8z"/>
	<path class="st0" d="M165.5,37.3c0,1.8,0.8,2.9,2.5,5.1c1.7,2.2,2.6,4.6,2.6,6.6h1.5c0,0,0.1-11,0-12.6c0-1.6,1.9-2.8,1.9-2.8v-1
		C174,32.6,165.5,36,165.5,37.3z"/>
	<path class="st0" d="M151.1,52h-1.7c0,0-0.1,10.5-0.1,12.1c0,1.6-2.3,2.3-2.3,2.3v1.3c0,0,8-1.9,8-6.5c0-1.4,0.3-2.9-0.3-4.3
		C153.5,54.2,151.1,52,151.1,52z"/>
</g>
<g>
	<text transform="matrix(1 0 0 1 11.2302 90.2501)" class="st1 st2 st3 st4">АRТ</text>
</g>
<text transform="matrix(1 0 0 1 11.1719 20.8589)" class="st1 st2 st5 st6">SALON</text>
</svg>
