<?xml version="1.0" encoding="utf-8"?>
<!-- Generator: Adobe Illustrator 19.0.1, SVG Export Plug-In . SVG Version: 6.00 Build 0)  -->
<svg version="1.1" id="Слой_1" xmlns="http://www.w3.org/2000/svg" xmlns:xlink="http://www.w3.org/1999/xlink" x="0px" y="0px"
	 viewBox="0 0 350 350" style="enable-background:new 0 0 350 350;" xml:space="preserve">
<style type="text/css">
	.st0{fill-rule:evenodd;clip-rule:evenodd;fill:#DCB57E;}
</style>
<path class="st0" d="M113.3,3.8H5.9v12.7h42v59.1V82v193.3v58.1l-42.7,0v12.7l42.7,0v0h65.5v-67.6v-3.2v-64.6
	c-3.3-26.3-17.1-45.5-34.5-48.2l0-3.5c17.4-3,31.3-23.1,34.5-49.8l0-27.1V10.2h0V3.8z"/>
<path class="st0" d="M243,10.2v6.4V82v27.1c3.2,26.8,17.1,46.9,34.5,49.9l0,3.5c-17.3,2.8-31.2,21.9-34.5,48.3l0,67.8v67.6h65.4
	h35.4v-12.7h-35.4v-54.9V82v-6.4V16.5h36.4V3.8H243V10.2z"/>
<rect x="120" y="156.6" class="st0" width="116.6" height="12.7"/>
</svg>
