<?xml version="1.0" encoding="utf-8"?>
<!-- Generator: Adobe Illustrator 19.0.1, SVG Export Plug-In . SVG Version: 6.00 Build 0)  -->
<svg version="1.1" id="Слой_1" xmlns="http://www.w3.org/2000/svg" xmlns:xlink="http://www.w3.org/1999/xlink" x="0px" y="0px"
	 viewBox="0 0 370 370" style="enable-background:new 0 0 370 370;" xml:space="preserve">
<style type="text/css">
	.st0{fill-rule:evenodd;clip-rule:evenodd;fill:#DCB57E;}
</style>
<path class="st0" d="M50.3,365.7L50.3,365.7l-45,0v-13.4l45,0v-61.3V80.1c1-45.7,41-62.4,41-62.4H6V4.3h113.4V11h0v75.9l0,225.6
	c-3.4,28.2-18,49.5-36.4,52.6"/>
<path class="st0" d="M293.6,4.8c-18.3,2.9-32.9,23.2-36.4,50.9l0,238.6v71.4h69.1h37.4v-13.4h-77.4c33.3-18.2,39.5-49.7,40-72.9
	V86.9v-6.8V17.7h38.4V4.3"/>
<polyline class="st0" points="266.4,28.6 141,264.4 153.3,269.8 278.1,35.7 "/>
</svg>
