<?xml version="1.0" encoding="utf-8"?>
<!-- Generator: Adobe Illustrator 19.0.1, SVG Export Plug-In . SVG Version: 6.00 Build 0)  -->
<svg version="1.1" id="Слой_1" xmlns="http://www.w3.org/2000/svg" xmlns:xlink="http://www.w3.org/1999/xlink" x="0px" y="0px"
	 viewBox="0 0 60 60" style="enable-background:new 0 0 60 60;" xml:space="preserve">
<style type="text/css">
	.st0{fill-rule:evenodd;clip-rule:evenodd;}
</style>
<g>
	<path class="st0" d="M30.1,50.3c1.8,2.1,1.8,4.8,0,6.9C28.1,55.2,28.1,52.2,30.1,50.3z"/>
	<g>
		<g>
			<path class="st0" d="M33,23.7c0.4,0.4,0.8,0.8,1,1.3c0.1,0.3,0.3,0.6,0.5,1.2c0,0.1,0,0.4,0,0.4l0.2,0v-3.6h-0.2
				c-0.1,0.1-0.1,0.2-0.2,0.3c-0.1,0.1-0.2,0.2-0.4,0.2c-0.1,0-0.2,0-0.4-0.1l-0.7-0.2c-0.8-0.2-1.5-0.4-2.2-0.4v0.3
				c0.4,0,0.8,0.1,1.2,0.2C32.3,23.2,32.7,23.4,33,23.7z"/>
			<path class="st0" d="M34.6,34.5c-0.2,0.5-0.4,0.9-0.5,1.2c-0.2,0.5-0.6,0.9-1,1.3c-0.3,0.3-0.7,0.5-1,0.6
				c-0.4,0.1-0.7,0.2-1.2,0.2V38c0.7,0,1.4-0.1,2.2-0.4l0.7-0.2c0.1,0,0.3-0.1,0.4-0.1c0.1,0,0.3,0.1,0.4,0.2c0,0.1,0.1,0.1,0.2,0.3
				l0.2,0v-3.6h-0.2C34.6,34.1,34.6,34.4,34.6,34.5z"/>
			<path class="st0" d="M23,30.2c0,4.1,2.8,7.4,6.4,7.7v-0.3c-1.9-0.4-3.1-2-3.3-6.1c-0.2-0.7-0.7-1.2-1.3-1.3v-0.1
				c0.6-0.1,1-0.6,1.3-1.4c0.2-3.8,1.4-5.4,3.3-5.8v-0.3C25.8,23,23,26.3,23,30.2z"/>
		</g>
		<path class="st0" d="M11.6,29.2c-2-0.7-4-1.4-6.1-2c1.4-0.7,2.9-1.7,2.9-3.9c1,4.2,3.5,6.3,7.6,6.8c-4.1,0.4-6.6,2.6-7.3,6.4
			c-1-1.3-2-2.6-3.1-4c2.2,0.1,4.5-0.4,6-2.4C11.6,29.8,11.6,29.5,11.6,29.2z"/>
		<path class="st0" d="M51.4,36.3c-1.3-4.2-2.8-5.5-7-6.1c1.5-0.7,3.3-1.2,4.6-2.3c1.2-1.1,1.9-2.8,2.6-4c0.8,1,1.9,2.4,2.8,3.6
			c-3.9,0.5-4.3,0.6-6,2.6c1.6,1.9,3.8,2.4,6.1,2.4C53.5,33.7,52.4,35,51.4,36.3z"/>
		<path class="st0" d="M49.1,45.5c-1.5-1.4-3.3-3-6.1-2.5c-0.3,2.6,1,4.5,2.6,6c-1.6,0.2-3.3,0.4-4.6,0.5c0.3-1.3,1.1-3.2,1-4.9
			c-0.1-1.7-1.2-3.3-1.7-4.7c2.7,2.4,6.1,2.9,9.4,0.6C49.4,42.2,49.3,43.9,49.1,45.5z"/>
		<path class="st0" d="M43,17c2.8,0.4,4.7-1,6.5-2.7c-0.5,1.9-1,3.6,0.7,5.3c-3.9-2.3-7.3-2-10.5,0.9c2.8-3.3,3.4-6.7,0.9-10
			c1.7,0.2,3.4,0.4,5,0.6C44.1,12.3,42.8,14.2,43,17z"/>
		<path class="st0" d="M32.5,54.3c0-2.2-0.5-4.4-2.5-6c-2.1,1.6-2.5,3.8-2.6,6.9c-1-2.2-2.1-3.5-4.3-3.5c4.4-1,6.6-3.7,6.8-8.1
			c0.3,4.3,2.4,7,6.4,7.8C35.1,52.3,33.8,53.3,32.5,54.3z"/>
		<path class="st0" d="M20.4,20.3c-3.9-2.9-6.2-3.1-10.1-0.8c0.3-1.6,0.5-3.3,0.8-4.8c3,2.3,3.5,2.5,6,2.2c0.3-2.6-1.1-4.5-2.6-6
			c1.5-0.1,3.2-0.3,4.9-0.4C17.1,13.8,17.5,17.2,20.4,20.3z"/>
		<path class="st0" d="M11,45.4c-0.3-1.7-0.5-3.3-0.7-4.9c3.4,2.2,6.8,2,10-1c-2.8,3.2-3.3,6.5-1,10.3c-1.6-0.8-3.2-1.5-5-0.1
			c1.1-2.3,2.1-4.3,3.3-6.6C14.5,42.5,12.7,43.8,11,45.4z"/>
		<path class="st0" d="M36.4,8.6c-4,0.7-6.1,3.4-6.4,7.7c-0.3-4.3-2.4-7-6.5-7.7c1.3-0.9,2.6-1.9,3.9-2.9c0.2,1.9,0.4,4.2,2.6,5.8
			c2-1.6,2.5-3.8,2.5-6C33.8,6.7,35.2,7.7,36.4,8.6z"/>
		<path class="st0" d="M45,19.2c2.2,0.1,4.3,0.6,5.2,2.4c0.9,2-0.5,3.8-1.8,5.6C47.2,24.4,46.1,21.9,45,19.2z"/>
		<path class="st0" d="M15,40.8c-2.4-0.1-4.4-0.6-5.2-2.4c-0.9-1.9,0.5-3.7,1.9-5.6C12.8,35.6,13.9,38.1,15,40.8z"/>
		<path class="st0" d="M40.9,44.9c-0.2,2.3-0.6,4.4-2.5,5.2c-1.9,0.8-3.8-0.4-5.5-1.9C35.6,47.1,38.1,46.1,40.9,44.9z"/>
		<path class="st0" d="M15,19.3c-1,2.5-2.1,5-3.1,7.5c-1.5-1.1-2.6-3.8-2.2-5.1C10,20.5,12.6,19.3,15,19.3z"/>
		<path class="st0" d="M45,40.9c1.2-2.8,2.2-5.3,3.2-7.7c1.4,1.1,2.7,3.8,2.1,5C49.4,40.2,47.4,40.6,45,40.9z"/>
		<path class="st0" d="M27.1,48.4c-1.7,1.3-3.6,2.6-5.5,1.7c-1.9-0.8-2.3-3-2.5-5c1.5,0.5,2.9,0.9,4.2,1.4
			C24.6,47,25.8,47.7,27.1,48.4z"/>
		<path class="st0" d="M27,11.8c-2.6,1.1-5.1,2.1-7.8,3.2c0.1-2.2,0.6-4.1,2.4-5.2C22.8,9,25.5,10.2,27,11.8z"/>
		<path class="st0" d="M40.9,15c-2.8-1.1-5.3-2.2-7.8-3.2c1.3-1.6,4-2.8,5.3-2.1C40.3,10.9,40.7,12.8,40.9,15z"/>
		<path class="st0" d="M57.3,30c-2.2,1.9-4.8,1.9-6.9,0.1C52.2,28.1,54.9,28,57.3,30z"/>
		<path class="st0" d="M2.7,30c2.4-1.9,5-1.8,6.9,0C7.8,31.9,4.9,31.9,2.7,30z"/>
		<path class="st0" d="M10.8,10.7c3,0.3,4.7,2.1,4.9,4.8C13,15.7,10.9,13.7,10.8,10.7z"/>
		<path class="st0" d="M10.8,49.3c0.1-2.8,1.9-4.7,4.8-5C15.8,46.9,13.8,49,10.8,49.3z"/>
		<path class="st0" d="M49.2,49.2c-2.8-0.2-4.5-2-4.8-4.8C47,44.2,49.4,46.5,49.2,49.2z"/>
		<path class="st0" d="M30,2.8c1.9,2,1.9,4.9,0,6.9C28.1,7.6,28.1,4.9,30,2.8z"/>
		<path class="st0" d="M44.4,15.7c0-2.8,1.7-4.5,4.6-5C49.5,13.1,47.6,15.3,44.4,15.7z"/>
	</g>
</g>
</svg>
