<?xml version="1.0" encoding="utf-8"?>
<!-- Generator: Adobe Illustrator 19.0.1, SVG Export Plug-In . SVG Version: 6.00 Build 0)  -->
<svg version="1.1" id="Слой_1" xmlns="http://www.w3.org/2000/svg" xmlns:xlink="http://www.w3.org/1999/xlink" x="0px" y="0px"
	 viewBox="0 0 160 160" style="enable-background:new 0 0 160 160;" xml:space="preserve">
<style type="text/css">
	.st0{fill-rule:evenodd;clip-rule:evenodd;fill:#FFFFFF;}
	.st1{fill:#FFFFFF;}
	.st2{fill-rule:evenodd;clip-rule:evenodd;fill:none;}
</style>
<g>
	<path class="st0" d="M80.9,136.5c5.2,5.9,5.2,13.4,0,19.4C75.2,150.2,75.2,141.9,80.9,136.5z"/>
	<path class="st0" d="M87.7,147.8c0.1-6.1-1.4-12.2-6.9-16.9c-5.9,4.5-7,10.7-7.2,19.2c-2.8-6.1-5.9-9.9-12.1-9.9
		c12.4-2.9,18.4-10.4,19.1-22.6c0.9,12,6.7,19.6,18,21.7C95.1,142.1,91.3,145,87.7,147.8z"/>
	<path class="st0" d="M111.2,121.4c-0.5,6.3-1.6,12.3-7,14.6c-5.4,2.2-10.5-1.1-15.4-5.3C96.4,127.6,103.4,124.7,111.2,121.4z"/>
	<path class="st0" d="M72.6,131.1c-4.9,3.6-9.9,7.3-15.4,4.9c-5.4-2.4-6.5-8.4-6.9-14.1c4.2,1.4,8.1,2.5,11.8,4
		C65.5,127.3,68.8,129.2,72.6,131.1z"/>
	<path class="st0" d="M26.8,133.6c0.3-7.8,5.4-13.1,13.3-14C40.8,126.9,35.3,132.9,26.8,133.6z"/>
	<path class="st0" d="M134.4,133.5c-7.7-0.6-12.7-5.6-13.4-13.4C128.4,119.3,135,125.9,134.4,133.5z"/>
	<g>
		<path class="st0" d="M93.1,67.2h-0.7c0,0,0.1-0.9,0-1.1c-0.7-1.6-1.2-2.9-1.6-3.7c-0.7-1.4-1.8-2.8-3.2-3.9
			c-1.1-0.9-2.1-1.6-3.3-2c-1.1-0.4-2.4-0.6-3.8-0.6V55c2.2,0,4.4,0.4,6.8,1.2l2.3,0.7c0.5,0.2,0.8,0.2,1.2,0.2
			c0.5,0,0.9-0.2,1.2-0.5c0.1-0.2,0.3-0.5,0.5-0.8h0.7V67.2z"/>
		<path class="st0" d="M66.6,90.7h0.8c0,0-0.1,0.9,0,1.2c0.7,1.7,1.2,3,1.7,3.8c0.8,1.5,1.9,2.9,3.3,4.1c1.1,0.9,2.2,1.6,3.4,2
			c1.2,0.4,2.5,0.6,3.9,0.6v0.9c-2.2,0-4.6-0.5-7.1-1.2l-2.4-0.7c-0.5-0.2-0.9-0.2-1.2-0.2c-0.5,0-0.9,0.2-1.2,0.6
			c-0.1,0.2-0.3,0.5-0.5,0.9h-0.7V90.7z"/>
		<path class="st1" d="M74.9,56.6c0,0-3.5,1.2-3.5,6.6c0,8,13.4,12,13.4,12c2.1,0.9,11.3,4.3,11.3,12.9c0,10.7-9.2,14.2-9.2,14.2
			v-0.7c0,0,3.9-1.2,3.9-7.5c0-6.3-8.5-9.1-11.7-10.6c-3.2-1.5-12.7-4.8-12.7-14.3c0-9.5,8.2-13.5,8.2-13.5L74.9,56.6z"/>
	</g>
	<rect x="69.6" y="73.2" class="st1" width="0.6" height="0.6"/>
	<path class="st0" d="M80.9,136.5c5.2,5.9,5.2,13.4,0,19.4C75.2,150.2,75.2,141.9,80.9,136.5z"/>
	<path class="st0" d="M29,77.3c-5.7-1.9-11.3-3.8-17.1-5.7c3.9-1.9,8-4.7,8-11c2.8,11.7,9.8,17.8,21.4,19.1
		c-11.6,1.2-18.6,7.2-20.4,18c-2.8-3.6-5.7-7.3-8.7-11.2c6.3,0.3,12.6-1,16.9-6.6C29,78.9,29,78.1,29,77.3z"/>
	<path class="st0" d="M140.7,97.3c-3.6-11.6-7.8-15.4-19.6-17.2c4.2-2,9.3-3.3,12.8-6.4c3.5-3.1,5.3-8,7.3-11.2
		c2.3,2.9,5.2,6.6,7.9,10.1c-11,1.3-12.1,1.7-16.8,7.3c4.5,5.4,10.7,6.8,17,6.6C146.4,90.1,143.5,93.7,140.7,97.3z"/>
	<path class="st0" d="M134.2,123.1c-4.2-3.9-9.2-8.4-17.1-7c-0.8,7.3,2.7,12.6,7.2,16.7c-4.4,0.5-9.1,1.1-13,1.5
		c0.8-3.8,3.1-8.8,2.7-13.7c-0.4-4.8-3.4-9.4-4.9-13c7.6,6.7,17.1,8.2,26.4,1.7C135.1,113.8,134.7,118.6,134.2,123.1z"/>
	<path class="st0" d="M117,43c7.9,1.2,13.1-2.8,18.2-7.7c-1.4,5.2-2.7,10.2,2,14.8c-10.9-6.5-20.5-5.6-29.5,2.6
		c7.9-9.1,9.6-18.7,2.6-28.1c4.7,0.5,9.6,1,14.1,1.5C120.1,30.1,116.5,35.4,117,43z"/>
	<path class="st0" d="M87.7,147.8c0.1-6.1-1.4-12.2-6.9-16.9c-5.9,4.5-7,10.7-7.2,19.2c-2.8-6.1-5.9-9.9-12.1-9.9
		c12.4-2.9,18.4-10.4,19.1-22.6c0.9,12,6.7,19.6,18,21.7C95.1,142.1,91.3,145,87.7,147.8z"/>
	<path class="st0" d="M53.7,52.5c-11.1-8.1-17.4-8.6-28.3-2.3c0.7-4.5,1.4-9.1,2.1-13.4c8.4,6.4,9.7,6.9,16.8,6.3
		c1-7.4-3.1-12.6-7.3-16.8c4.3-0.4,8.9-0.7,13.6-1.1C44.6,34.3,45.7,43.7,53.7,52.5z"/>
	<path class="st0" d="M27.5,122.9c-0.7-4.7-1.3-9.2-2-13.7c9.5,6.2,19,5.7,28.2-2.8c-7.8,8.9-9.2,18.3-2.7,28.9
		c-4.6-2.4-9.1-4.3-13.9-0.4c3.2-6.4,6-12,9.3-18.5C37.3,114.7,32.1,118.3,27.5,122.9z"/>
	<path class="st0" d="M98.7,19.8c-11.2,2-17.2,9.6-18,21.7c-0.8-12-6.6-19.7-18.1-21.7c3.6-2.6,7.3-5.3,11-8
		c0.5,5.4,1.2,11.9,7.2,16.4c5.7-4.4,7.1-10.6,7-16.7C91.3,14.2,95.1,17,98.7,19.8z"/>
	<path class="st0" d="M122.7,49.2c6.3,0.2,12.2,1.6,14.5,6.8c2.5,5.6-1.5,10.7-5.1,15.8C128.8,64,125.9,56.8,122.7,49.2z"/>
	<path class="st0" d="M38.7,110c-6.6-0.4-12.4-1.8-14.7-6.8c-2.4-5.4,1.3-10.5,5.3-15.6C32.6,95.2,35.5,102.2,38.7,110z"/>
	<path class="st0" d="M111.2,121.4c-0.5,6.3-1.6,12.3-7,14.6c-5.4,2.2-10.5-1.1-15.4-5.3C96.4,127.6,103.4,124.7,111.2,121.4z"/>
	<path class="st0" d="M38.5,49.6c-2.9,7.1-5.8,14.1-8.7,21.1c-4.1-3.1-7.4-10.6-6.2-14.2C24.7,52.9,31.9,49.5,38.5,49.6z"/>
	<path class="st0" d="M122.6,110c3.2-7.8,6.1-14.7,9-21.7c4,3,7.7,10.6,6,14.1C135,108.2,129.3,109.3,122.6,110z"/>
	<path class="st0" d="M72.6,131.1c-4.9,3.6-9.9,7.3-15.4,4.9c-5.4-2.4-6.5-8.4-6.9-14.1c4.2,1.4,8.1,2.5,11.8,4
		C65.5,127.3,68.8,129.2,72.6,131.1z"/>
	<path class="st0" d="M72.1,28.6c-7.2,2.9-14.3,5.9-21.9,9C50.6,31.6,52,26.2,57,23C60.5,20.8,68,24,72.1,28.6z"/>
	<path class="st0" d="M111.2,37.6c-7.8-3.2-14.8-6-21.8-8.9c3.7-4.5,11.3-7.8,14.8-5.8C109.4,26,110.7,31.3,111.2,37.6z"/>
	<path class="st0" d="M4.1,79.5c6.6-5.2,13.9-5.1,19.5,0C18.5,84.9,10.3,85,4.1,79.5z"/>
	<path class="st0" d="M136.7,79.5c6.6-5.2,13.9-5.1,19.5,0C151.1,84.9,142.9,85,136.7,79.5z"/>
	<path class="st0" d="M26.7,25.6c8.3,0.9,13.3,5.9,13.6,13.5C33,39.5,27,33.8,26.7,25.6z"/>
	<path class="st0" d="M26.8,133.6c0.3-7.8,5.4-13.1,13.3-14C40.8,126.9,35.3,132.9,26.8,133.6z"/>
	<path class="st0" d="M134.4,133.5c-7.7-0.6-12.7-5.6-13.4-13.4C128.4,119.3,135,125.9,134.4,133.5z"/>
	<path class="st2" d="M80.7,3.3C86,8.8,86,16.9,80.7,22.6C75.3,16.9,75.2,9.2,80.7,3.3z"/>
	<path class="st0" d="M121.1,39.6c0-7.9,4.6-12.7,13-14.1C135.4,32.3,129.9,38.4,121.1,39.6z"/>
</g>
</svg>
