<?xml version="1.0" encoding="utf-8"?>
<!-- Generator: Adobe Illustrator 19.0.1, SVG Export Plug-In . SVG Version: 6.00 Build 0)  -->
<svg version="1.1" id="Слой_1" xmlns="http://www.w3.org/2000/svg" xmlns:xlink="http://www.w3.org/1999/xlink" x="0px" y="0px"
	 viewBox="0 0 390 85" style="enable-background:new 0 0 390 85;" xml:space="preserve">
<style type="text/css">
	.st0{fill-rule:evenodd;clip-rule:evenodd;fill:#FFFFFF;}
	.st1{fill:#FFFFFF;}
</style>
<g>
	<path class="st0" d="M61.9,30.8H61c0,0,0.1-1.1-0.1-1.4c-0.8-2-1.5-3.5-2-4.5C58,23.1,56.7,21.5,55,20c-1.3-1.1-2.6-1.9-4-2.4
		c-1.4-0.5-2.9-0.8-4.6-0.8v-1c2.7,0.1,5.5,0.5,8.4,1.5l2.9,0.8c0.6,0.2,1,0.3,1.5,0.3c0.6,0,1.1-0.2,1.4-0.7c0.2-0.2,0.4-0.6,0.6-1
		h0.8V30.8z"/>
	<path class="st0" d="M29.1,59.9h1c0,0-0.1,1.1,0.1,1.4c0.8,2.1,1.5,3.7,2.1,4.7c0.9,1.8,2.3,3.5,4.1,5.1c1.4,1.2,2.7,2,4.2,2.5
		c1.4,0.5,3,0.8,4.8,0.8v1.1c-2.8-0.1-5.7-0.6-8.7-1.5l-3-0.9c-0.6-0.2-1.1-0.3-1.5-0.3c-0.6,0-1.1,0.2-1.5,0.7
		c-0.2,0.2-0.4,0.6-0.6,1.1h-0.9V59.9z"/>
	<path class="st1" d="M39.4,17.7c0,0-4.3,1.5-4.3,8.1c0,10,16.6,14.8,16.6,14.8c2.5,1.2,13.8,5.4,13.8,16C65.5,69.8,54,74.2,54,74.2
		v-0.9c0,0,5-1.5,5-9.3c0-7.8-10.4-11.2-14.4-13.1c-4-1.9-15.7-5.9-15.7-17.6c0-11.7,10.2-16.7,10.2-16.7L39.4,17.7z"/>
	<g>
		<path class="st0" d="M337.7,36l-2-0.9l9.3-21.5l1.9,0.8l-6.2,13.9c0,0,0,0.1,0.1,0.3L337.7,36L337.7,36L337.7,36z M347,14.5
			L347,14.5L347,14.5L347,14.5z"/>
	</g>
	<rect x="349.8" y="71.4" class="st0" width="24.6" height="2.2"/>
	<g>
		<path class="st0" d="M369.4,71.4h-11.7c-2.8-7.2-15.9-40.6-17.3-44.1l6.6-12.8L369.4,71.4L369.4,71.4L369.4,71.4z M347,14.5
			L347,14.5L347,14.5L347,14.5z"/>
	</g>
	<path class="st0" d="M322.9,73.9l-5-0.4v-1.1c0.1,0,0.2,0,0.2,0c3.9,0,5.2-4.5,6.5-7.9c0.7-1.8,2.1-5.6,2.6-6.6
		c2.1-4.9,6-10.1,12.6-10.1l5.7,0.1v1.1c-0.1,0-0.1,0-0.2,0c-3.8,0-5,4.3-6.2,7.6c-0.6,1.7-2.3,6.6-2.7,7.6
		C334,69.8,329.9,73.9,322.9,73.9z"/>
	<path class="st0" d="M124.2,73.6h-18v-1.5c8.5-0.7,15.3-6.4,17.3-14l0.7,0V73.6z"/>
	<path class="st0" d="M187.3,73.6h-18v-1.5c8.5-0.7,15.3-6.4,17.3-14l0.7,0V73.6z"/>
	<path class="st0" d="M122.8,31.1h-0.7c-1.9-7.5-8.8-13.2-17.3-14v-1.5h18V31.1z"/>
	<polygon class="st0" points="87.3,73.7 81.7,73.7 81.7,71.5 87.3,71.5 87.3,73.6 87.3,73.7 87.3,73.7 	"/>
	<polygon class="st0" points="151.7,73.7 145.7,73.7 145.7,71.5 151.6,71.5 151.6,73.6 151.6,73.7 151.7,73.7 	"/>
	<polygon class="st0" points="98.4,17.8 98.4,17.8 98.4,16.7 87.3,16.7 87.3,17.8 80.1,17.8 80.1,15.6 98.4,15.6 	"/>
	<polygon class="st0" points="168.7,15.6 168.7,17.8 145,17.8 145,15.6 	"/>
	<path class="st0" d="M109.1,54.4h-1.2c0-5.5-2.6-9.8-6-10.3v-0.6c3.3-0.6,5.8-4.6,6-9.9h1.2V54.4z"/>
	<polygon class="st0" points="87.3,71.5 87.3,71.5 87.3,27.9 87.3,33.6 98.4,33.6 98.4,50.9 98.4,62.4 87.3,62.4 	"/>
	<path class="st0" d="M98.4,73.7H87.3v-0.1c6.1,0,11.1-5,11.1-11.1v0V73.7z"/>
	<path class="st0" d="M87.3,73.7L87.3,73.7L87.3,73.7C87.3,73.6,87.3,73.6,87.3,73.7L87.3,73.7z"/>
	<path class="st0" d="M87.3,73.6v-2.1h-0.1v-9.1h11.1C98.4,68.6,93.5,73.5,87.3,73.6z"/>
	<path class="st0" d="M87.3,73.6v-2.1h0.1L87.3,73.6C87.3,73.6,87.3,73.6,87.3,73.6z"/>
	<path class="st0" d="M87.3,27.9V17.8h6.4C89.9,19.6,87.3,23.4,87.3,27.9z"/>
	<path class="st0" d="M93.6,17.8h-6.4v-1.1h11.1C96.7,16.7,95.1,17.1,93.6,17.8z"/>
	<path class="st0" d="M98.4,33.6H87.3v-5.7c0-4.4,2.6-8.3,6.4-10.1l4.8,0V33.6z"/>
	<path class="st0" d="M98.4,17.8h-4.8c1.5-0.7,3.1-1.1,4.8-1.1l0,0V17.8z"/>
	<path class="st0" d="M241.3,73.6h-18v-1.5c8.5-0.7,15.3-6.4,17.3-14l0.7,0V73.6z"/>
	<path class="st0" d="M239.9,31.1h-0.7c-1.9-7.5-8.8-13.2-17.3-14v-1.5h18V31.1z"/>
	<polygon class="st0" points="204.4,73.7 198.8,73.7 198.8,71.5 204.4,71.5 204.4,73.6 204.4,73.7 204.4,73.7 	"/>
	<polygon class="st0" points="215.5,17.8 215.5,17.8 215.5,16.7 204.4,16.7 204.4,17.8 197.2,17.8 197.2,15.6 215.5,15.6 	"/>
	<path class="st0" d="M226.2,54.4H225c0-5.5-2.6-9.8-6-10.3v-0.6c3.3-0.6,5.8-4.6,6-9.9h1.2V54.4z"/>
	<polygon class="st0" points="204.4,71.5 204.4,71.5 204.4,27.9 204.4,33.6 215.5,33.6 215.5,50.9 215.5,62.4 204.4,62.4 	"/>
	<path class="st0" d="M215.5,73.7h-11.1v-0.1c6.1,0,11.1-5,11.1-11.1v0V73.7z"/>
	<path class="st0" d="M204.4,73.7L204.4,73.7L204.4,73.7C204.4,73.6,204.4,73.6,204.4,73.7L204.4,73.7z"/>
	<path class="st0" d="M204.4,73.6v-2.1h-0.1v-9.1h11.1C215.5,68.6,210.6,73.5,204.4,73.6z"/>
	<path class="st0" d="M204.4,73.6v-2.1h0.1L204.4,73.6C204.4,73.6,204.4,73.6,204.4,73.6z"/>
	<path class="st0" d="M204.4,27.9V17.8h6.4C207,19.6,204.4,23.4,204.4,27.9z"/>
	<path class="st0" d="M210.7,17.8h-6.4v-1.1h11.1C213.8,16.7,212.2,17.1,210.7,17.8z"/>
	<path class="st0" d="M215.5,33.6h-11.1v-5.7c0-4.4,2.6-8.3,6.4-10.1l4.8,0V33.6z"/>
	<path class="st0" d="M215.5,17.8h-4.8c1.5-0.7,3.1-1.1,4.8-1.1l0,0V17.8z"/>
	<path class="st0" d="M161,38.6c-7,0-11.1-5-11.1-11.1c0-6.1,4.1-11.1,11.1-11.1V38.6z"/>
	<path class="st0" d="M150,51.5c7,0,11.1,5,11.1,11.1S157,73.7,150,73.7V51.5z"/>
	<rect x="150" y="27" class="st0" width="11" height="36"/>
	<path class="st0" d="M282.9,31.8c-5.3,3.2-11.9,1.9-15.3-2.6c-3.4-4.5-2.4-10.5,2.9-13.7L282.9,31.8z"/>
	<path class="st0" d="M285.5,52.8c5.3-3.2,4.3-11.9,7.7-7.4c3.2,4.2,7.6,17.8,8,28c0,0.6-0.4-0.2-0.4,0.3L285.5,52.8z"/>
	<polygon class="st0" points="293.2,45.4 285.9,53.4 267.4,28.8 276.5,23.2 	"/>
	<polygon class="st0" points="270.5,17.7 256.6,17.7 256.6,15.4 270.4,15.4 270.4,17.6 270.4,17.7 270.5,17.7 	"/>
	<rect x="300.8" y="55.2" class="st0" width="2.5" height="18.5"/>
	<path class="st0" d="M306,14v1.6c0,0-3,1.6-3,4.3c0,2.8,0.3,21.1,0.3,21.1h-2.5c0-1.9-1.3-6.9-4.1-10.7c-2.9-3.8-4.8-5.4-4.8-8.4
		C291.8,19.5,306,14,306,14z"/>
	<path class="st0" d="M260,73.8v-2.2c0,0,4.3-1.6,4.3-4.4c0-2.8,0.5-21.2,0.5-21.2h2.8c0,0,4.2,4.2,6.2,8.9c1,2.4,0.1,5.2,0.1,7.7
		C273.9,70.2,260,73.8,260,73.8z"/>
</g>
</svg>
