<?xml version="1.0" encoding="utf-8"?>
<!-- Generator: Adobe Illustrator 19.0.1, SVG Export Plug-In . SVG Version: 6.00 Build 0)  -->
<svg version="1.1" id="Слой_1" xmlns="http://www.w3.org/2000/svg" xmlns:xlink="http://www.w3.org/1999/xlink" x="0px" y="0px"
	 viewBox="0 0 390 85" style="enable-background:new 0 0 390 85;" xml:space="preserve">
<style type="text/css">
	.st0{fill-rule:evenodd;clip-rule:evenodd;fill:#FFFFFF;}
</style>
<g>
	<path class="st0" d="M49.3,17.6c1.7,1.5,3,3.1,3.9,4.8c0.5,1,1.2,2.5,2,4.5c0.1,0.3,0.1,1.4,0.1,1.4h0.9v-14h-0.8
		c-0.2,0.5-0.4,0.8-0.6,1c-0.4,0.4-0.8,0.7-1.4,0.7c-0.4,0-0.9-0.1-1.5-0.3L49,14.9c-2.9-0.9-5.7-1.4-8.3-1.4l0,1
		c1.7,0,3.2,0.3,4.6,0.8C46.7,15.7,48,16.5,49.3,17.6z"/>
	<path class="st0" d="M55.2,59.2c-0.8,2-1.5,3.5-2,4.5c-0.9,1.8-2.2,3.4-3.9,4.8c-1.3,1.1-2.6,1.9-4,2.4c-1.4,0.5-2.9,0.7-4.6,0.7v1
		c2.6-0.1,5.4-0.5,8.3-1.4l2.8-0.8c0.6-0.2,1-0.3,1.4-0.3c0.6,0,1,0.2,1.4,0.7c0.2,0.2,0.4,0.6,0.6,1l0.8,0v-14h-0.9
		C55.3,57.9,55.4,58.9,55.2,59.2z"/>
	<path class="st0" d="M10.5,43c0,15.7,10.8,28.5,24.5,29.8v-1c-7.4-1.5-11.8-7.9-12.6-23.7c-1-2.8-2.8-4.6-4.9-5v-0.6
		c2.2-0.4,4-2.4,4.9-5.3c0.9-14.8,5.3-20.8,12.5-22.3v-1C21.3,15.2,10.5,27.7,10.5,43z"/>
	<path class="st0" d="M144.3,40l-10.8,26.7c-1.6,2.5-5.9,4.3-10,4.3v1.2h18.5v-1.2c-3.5-0.1-5.5-1.7-6.6-3.5l10.8-26.7L144.3,40z"/>
	<path class="st0" d="M156.6,12.8l-6,14.7c0.1,0.2,13.4,34,16.8,42.5h-6.2v2.2h24.6V70H179L156.6,12.8z"/>
	<path class="st0" d="M374.4,70.1L352,13.1v0l0-0.1l0,0l-1.9-0.8l-9.3,21.5l2,0.9l3.1-7.3c1.3,3.4,14,35.5,16.8,42.7h-7.9v2.2h24.6
		v-2.2H374.4z"/>
	<path class="st0" d="M332.2,56.5c-0.4,1-1.9,4.8-2.6,6.6c-1.3,3.5-2.6,8.1-6.7,7.9v1.1l5,0.4c6.9,0,11.1-4,13.5-9.8
		c0.4-1.1,2.1-5.9,2.7-7.6c1.2-3.4,2.5-7.8,6.4-7.6l0-1.1l-5.7-0.1C338.2,46.4,334.3,51.7,332.2,56.5z"/>
	<path class="st0" d="M274.3,14.1h-18.2v2.2h7.1v10v1.1v32.8v9.9l-7.2,0v2.2l7.2,0v0h11.1V60.8v-0.5v-11c-0.6-4.5-2.9-7.7-5.8-8.2
		l0-0.6c2.9-0.5,5.3-3.9,5.8-8.5l0-4.6V15.2h0V14.1z"/>
	<path class="st0" d="M296.3,15.2v1.1v11.1V32c0.5,4.5,2.9,8,5.8,8.5l0,0.6c-2.9,0.5-5.3,3.7-5.8,8.2l0,11.5v11.5h11.1h6v-2.2h-6
		v-9.3V27.4v-1.1v-10h6.2v-2.2h-17.3V15.2z"/>
	<rect x="275.4" y="40.1" class="st0" width="19.8" height="2.2"/>
	<path class="st0" d="M97.2,70.7v1.5h17.9V56.8h-0.7C112.5,64.2,105.6,69.9,97.2,70.7z"/>
	<path class="st0" d="M112.9,29.8h0.7V14.4H95.7v1.5C104.1,16.7,111,22.3,112.9,29.8z"/>
	<polygon class="st0" points="71.2,16.6 78.3,16.6 78.3,26.6 78.3,32.3 78.3,61 78.3,70.1 72.7,70.1 72.7,72.2 78.3,72.2 78.3,72.2 
		89.4,72.2 89.4,61 89.4,49.5 89.4,32.3 89.4,16.6 89.4,15.5 89.4,14.4 71.2,14.4 	"/>
	<path class="st0" d="M100,53.1V32.4h-1.2c-0.2,5.2-2.7,9.3-6,9.8v0.6c3.4,0.5,6,4.8,6,10.3L100,53.1z"/>
	<path class="st0" d="M221.8,70.7v1.5h17.9V56.8H239C237.1,64.2,230.2,69.9,221.8,70.7z"/>
	<path class="st0" d="M237.5,29.8h0.7V14.4h-17.9v1.5C228.8,16.7,235.6,22.3,237.5,29.8z"/>
	<polygon class="st0" points="195.8,16.6 202.9,16.6 202.9,26.6 202.9,32.3 202.9,61 202.9,70.1 195.9,70.1 195.9,72.3 202.9,72.3 
		202.9,72.2 214,72.2 214,61 214,49.5 214,32.3 214,16.6 214,14.4 195.8,14.4 	"/>
	<path class="st0" d="M224.6,53.1V32.4h-1.2c-0.2,5.2-2.7,9.3-6,9.8v0.6c3.4,0.5,6,4.8,6,10.3L224.6,53.1z"/>
</g>
</svg>
