<?xml version="1.0" encoding="utf-8"?>
<!-- Generator: Adobe Illustrator 19.0.1, SVG Export Plug-In . SVG Version: 6.00 Build 0)  -->
<svg version="1.1" id="Слой_1" xmlns="http://www.w3.org/2000/svg" xmlns:xlink="http://www.w3.org/1999/xlink" x="0px" y="0px"
	 viewBox="0 0 50 50" style="enable-background:new 0 0 50 50;" xml:space="preserve">
<style type="text/css">
	.st0{fill:#FFFFFF;}
</style>
<g id="X4CpcH_1_">
	<g>
		<path class="st0" d="M16.4,11.8c0.2,0,0.4,0,0.6,0c4.2,0,8.4,0,12.7,0c1.7,0,3.3,0.2,4.8,0.9c1.9,0.9,3.3,2.3,3.7,4.4
			c0.3,1.6,0.2,3.2-0.4,4.8c-0.5,1.1-1.3,1.9-2.2,2.6c-0.4,0.3-0.8,0.5-1.2,0.8c0.7,0.3,1.4,0.5,2.1,0.8c2.1,1,3.5,2.6,3.8,5
			c0.2,1.5,0.2,3-0.3,4.5c-0.6,1.8-1.7,3.1-3.2,4.1c-1.5,1-3.2,1.7-5.1,1.9c-0.8,0.1-1.7,0.2-2.5,0.2c-4.1,0-8.1,0-12.2,0
			c-0.2,0-0.4,0-0.6,0C16.4,31.8,16.4,21.8,16.4,11.8z M23.9,28.8c0,2.6,0,5,0,7.4c1.5,0,2.9,0,4.3,0c0.4,0,0.9-0.1,1.3-0.2
			c0.9-0.2,1.7-0.5,2.3-1.3c0.4-0.5,0.6-1.2,0.7-1.8c0.2-1.1-0.2-2.5-1.3-3.2c-1.1-0.7-2.3-0.8-3.5-0.9
			C26.4,28.7,25.2,28.8,23.9,28.8z M23.8,23.7c1.5-0.1,2.9-0.1,4.4-0.3c0.9-0.1,1.6-0.6,2-1.4c0.3-0.8,0.4-1.5,0.3-2.3
			c-0.2-0.9-0.6-1.5-1.5-1.8c-0.8-0.3-1.6-0.4-2.4-0.4c-0.9,0-1.8,0-2.8,0C23.8,19.4,23.8,21.5,23.8,23.7z"/>
	</g>
</g>
</svg>
